<?xml version="1.0" encoding="UTF-8" standalone="no"?>
<svg
   xmlns:dc="http://purl.org/dc/elements/1.1/"
   xmlns:cc="http://creativecommons.org/ns#"
   xmlns:rdf="http://www.w3.org/1999/02/22-rdf-syntax-ns#"
   xmlns:svg="http://www.w3.org/2000/svg"
   xmlns="http://www.w3.org/2000/svg"
   xmlns:sodipodi="http://sodipodi.sourceforge.net/DTD/sodipodi-0.dtd"
   xmlns:inkscape="http://www.inkscape.org/namespaces/inkscape"
   version="1.1"
   id="Your_Icon"
   x="0px"
   y="0px"
   width="100px"
   height="100px"
   viewBox="5.0 -10.0 100.0 135.0"
   enable-background="new 0 0 100 100"
   xml:space="preserve"
   inkscape:version="0.91 r13725"
   sodipodi:docname="ship1.svg"
   inkscape:export-filename="D:\Users\jcouilla\git\morph3\morph\morph-game\src\main\resources\img\ship1-bg.png"
   inkscape:export-xdpi="460.79999"
   inkscape:export-ydpi="460.79999"><metadata
     id="metadata17"><rdf:RDF><cc:Work
         rdf:about=""><dc:format>image/svg+xml</dc:format><dc:type
           rdf:resource="http://purl.org/dc/dcmitype/StillImage" /><dc:title></dc:title></cc:Work></rdf:RDF></metadata><defs
     id="defs15" /><sodipodi:namedview
     pagecolor="#dadcda"
     bordercolor="#666666"
     borderopacity="1"
     objecttolerance="10"
     gridtolerance="10"
     guidetolerance="10"
     inkscape:pageopacity="0"
     inkscape:pageshadow="2"
     inkscape:window-width="1920"
     inkscape:window-height="1148"
     id="namedview13"
     showgrid="false"
     showguides="true"
     inkscape:guide-bbox="true"
     inkscape:zoom="9.44"
     inkscape:cx="45.226302"
     inkscape:cy="48.354795"
     inkscape:window-x="-8"
     inkscape:window-y="-8"
     inkscape:window-maximized="1"
     inkscape:current-layer="layer2"
     inkscape:snap-perpendicular="false"
     inkscape:snap-tangential="false"><inkscape:grid
       type="xygrid"
       id="grid4170" /><sodipodi:guide
       position="50,85.519068"
       orientation="1,0"
       id="guide4221" /><sodipodi:guide
       position="31.038136,76.938559"
       orientation="1,0"
       id="guide4223" /><sodipodi:guide
       position="33.898305,91.239407"
       orientation="1,0"
       id="guide4225" /><sodipodi:guide
       position="68.961864,76.223517"
       orientation="1,0"
       id="guide4227" /><sodipodi:guide
       position="65.995763,68.644068"
       orientation="1,0"
       id="guide4229" /><sodipodi:guide
       position="16.84322,80.942797"
       orientation="0,1"
       id="guide4231" /><sodipodi:guide
       position="24.04661,65.926907"
       orientation="1,0"
       id="guide4233" /><sodipodi:guide
       position="76.059322,60.492585"
       orientation="1,0"
       id="guide4235" /><sodipodi:guide
       position="-7.2033898,72.934322"
       orientation="0,1"
       id="guide4237" /><sodipodi:guide
       position="43.008475,23.024364"
       orientation="1,0"
       id="guide4247" /><sodipodi:guide
       position="56.991525,19.306144"
       orientation="1,0"
       id="guide4249" /><sodipodi:guide
       position="22.457627,32.462924"
       orientation="0,1"
       id="guide4251" /><sodipodi:guide
       position="-15.783898,22.881356"
       orientation="0,1"
       id="guide4253" /><sodipodi:guide
       position="-6.25,5.434322"
       orientation="0,1"
       id="guide4255" /><sodipodi:guide
       position="13.45339,16.159958"
       orientation="0,1"
       id="guide4257" /><sodipodi:guide
       position="24.04661,12.15572"
       orientation="0,1"
       id="guide4259" /><sodipodi:guide
       position="62.923729,124.13136"
       orientation="0,1"
       id="guide4277" /></sodipodi:namedview><g
     inkscape:groupmode="layer"
     id="layer6"
     inkscape:label="shipBg"
     style="display:inline"><path
       style="fill:#ffffff;fill-opacity:1;fill-rule:evenodd;stroke:none;stroke-width:1.35000002px;stroke-linecap:butt;stroke-linejoin:miter;stroke-opacity:1"
       d="M 49.708686,8.3050847 39.269067,49.777542 18.38983,68.082627 l 0,9.438559 27.17161,4.862288 0,3.432204 2.002118,0.143008 0.286018,3.575213 7.150423,3.003178 7.579449,-3.432204 4.290255,-8.723516 24.740465,-2.860171 0.286018,-7.722458 L 87.605931,64.078389 69.87288,48.633474 60.720338,8.4480929 Z"
       id="path4282"
       inkscape:connector-curvature="0"
       inkscape:export-xdpi="115"
       inkscape:export-ydpi="115" /></g><g
     inkscape:groupmode="layer"
     id="layer2"
     inkscape:label="ship"
     style="display:none"><g
       id="g3"
       style="stroke:none;stroke-opacity:1"
       transform="translate(5.1483056,0.85805088)"><path
         d="M 66.625,47.875 C 62.348,40.925 59.893,2.208 50.668,0.095 50.418,0.036 50.218,0 49.938,0 49.659,0 49.429,0.036 49.181,0.094 39.952,2.196 37.138,40.924 32.86,47.875 c -4,6.5 -20.859,14.5 -20.859,21.375 l 0,9.125 27,4.375 0,3.25 1.875,0 c 0,0 -0.5,4.938 6.125,4.938 l 3,9.031 3,-9.047 C 59.625,90.922 59.127,86 59.127,86 L 61,86 61,82.75 87,78.375 87,69.25 C 87,62.375 70.625,54.375 66.625,47.875 Z M 85,75 l -26,0 0,5.634 0,2.116 0,1.25 -2.645,0 0.282,2.567 c 10e-4,0.007 10e-4,0.857 -0.454,1.362 C 55.651,88.519 54.52,89 53,89 L 51.156,89 50,70.5 48.844,89 47,89 c -1.492,0 -2.612,-0.563 -3.154,-1.133 -0.457,-0.48 -0.48,-1.054 -0.479,-1.202 L 43.789,84 41,84 41,82.75 41,80.634 41,75 15,75 15,69.25 c 0,-2.807 5.948,-7.4 10.291,-10.755 4.151,-3.207 8.071,-6.235 9.964,-9.31 1.71,-2.779 2.912,-8.575 4.731,-17.8 1.345,-6.819 2.87,-14.547 4.797,-20.381 C 44.9,10.649 45.015,10.326 45.131,10 l 9.738,0 c 0.115,0.326 0.23,0.648 0.348,1.004 1.928,5.834 3.452,13.562 4.797,20.381 1.82,9.226 3.021,15.021 4.732,17.8 1.893,3.074 5.813,6.103 9.964,9.31 C 79.052,61.85 85,66.443 85,69.25 L 85,75 Z"
         id="path5"
         style="fill:#ffffff;fill-opacity:1;stroke:none;stroke-opacity:1"
         inkscape:connector-curvature="0" /><polygon
         points="43.25,22.75 50,20 56.75,22.75 55,17.75 50,15 45,17.75 "
         id="polygon7"
         style="fill:#ffffff;fill-opacity:1;stroke:none;stroke-opacity:1" /></g></g><g
     inkscape:groupmode="layer"
     id="layer1"
     inkscape:label="lasers"
     style="display:none"><path
       style="fill:none;fill-rule:evenodd;stroke:#ffffff;stroke-width:1.35000002px;stroke-linecap:butt;stroke-linejoin:miter;stroke-opacity:1"
       d="m 19.962923,52.065678 0,14.01483"
       id="path4239"
       inkscape:connector-curvature="0" /><path
       style="fill:none;fill-rule:evenodd;stroke:#ffffff;stroke-width:1.35000002px;stroke-linecap:butt;stroke-linejoin:miter;stroke-opacity:1"
       d="m 90.180084,52.065678 0,14.586864"
       id="path4241"
       inkscape:connector-curvature="0" /></g><g
     inkscape:groupmode="layer"
     id="layer3"
     inkscape:label="miningLasers"
     style="display:none"><path
       style="fill:#ffffff;fill-opacity:1;fill-rule:evenodd;stroke:#ffffff;stroke-width:1.35000002px;stroke-linecap:butt;stroke-linejoin:miter;stroke-opacity:1"
       d="m 29.401483,58.215042 0,-14.157838 3.861228,0 0,10.868643 z"
       id="path4243"
       inkscape:connector-curvature="0" /><path
       style="fill:#ffffff;fill-opacity:1;fill-rule:evenodd;stroke:#ffffff;stroke-width:1.35000002px;stroke-linecap:butt;stroke-linejoin:miter;stroke-opacity:1"
       d="m 76.594279,54.925847 0,-10.868643 4.004236,0 0,14.300847 z"
       id="path4245"
       inkscape:connector-curvature="0"
       sodipodi:nodetypes="ccccc" /></g><g
     inkscape:groupmode="layer"
     id="layer4"
     inkscape:label="propulsors"
     style="display:none"><path
       style="display:inline;fill:none;fill-rule:evenodd;stroke:#ffffff;stroke-width:1.35000002px;stroke-linecap:butt;stroke-linejoin:miter;stroke-opacity:1"
       d="m 54.999999,119.56568 c 0,0 2.860171,-6.7214 -9.438559,-6.7214 -12.298729,0 0,-10.86864 0,-10.86864 l 9.438559,0.143 9.438562,1e-5 c 0,0 12.155721,10.72563 0,10.72563 -12.155722,0 -9.438562,6.7214 -9.438562,6.7214 z"
       id="path4267"
       inkscape:connector-curvature="0" /></g><g
     inkscape:groupmode="layer"
     id="layer5"
     inkscape:label="repair"
     style="display:none"><path
       style="display:inline;fill:#ffffff;fill-opacity:1"
       inkscape:connector-curvature="0"
       d="m 90.218344,3.8183344 c -0.005,-0.091625 -0.0137,-0.1638102 -0.0137,-0.1638102 -0.007,-0.059678 -0.056,-0.084526 -0.1087,-0.055787 l -2.078488,1.142955 c -0.05259,0.028907 -0.141159,0.034488 -0.197114,0.012505 L 86.711046,4.3161857 c -0.05581,-0.022145 -0.100251,-0.089258 -0.0989,-0.1489342 l 0.02804,-1.2467521 c 0.0013,-0.060014 0.04582,-0.1323671 0.09839,-0.1607673 l 2.19749,-1.18657 c 0.0527,-0.028229 0.0563,-0.080469 0.008,-0.1156308 0,0 -0.23566,-0.1700659 -0.41367,-0.2632127 -0.249017,-0.1305081 -0.517294,-0.2287265 -0.799612,-0.28873962 -0.212329,-0.0451344 -0.432434,-0.069142 -0.658119,-0.069142 -1.740212,0 -3.150938,1.41073222 -3.150938,3.15094432 0,0.1675293 0.01416,0.3318474 0.03871,0.4922766 0.01724,0.114279 0.02958,0.2343052 0.02804,0.356191 -0.0013,0.1316908 -0.01992,0.2662558 -0.06661,0.3991301 -0.02402,0.067958 -0.05508,0.1357481 -0.09535,0.2021852 -0.04018,0.066608 -0.07911,0.113095 -0.07911,0.113095 -0.03871,0.045812 -0.104813,0.1181673 -0.147244,0.1607679 L 78.04736,11.255059 c -0.04247,0.04243 -0.116653,0.106333 -0.164994,0.142003 0,0 -0.04173,0.03127 -0.104813,0.06711 -0.103798,0.05968 -0.205736,0.09822 -0.313591,0.120703 -0.102109,0.0213 -0.209457,0.02756 -0.328976,0.02316 -0.06576,-0.0025 -0.134901,-0.0085 -0.208775,-0.01691 -0.149781,-0.01724 -0.30193,-0.0328 -0.457115,-0.0328 -1.740047,0 -3.150776,1.410731 -3.150776,3.150944 0,0.0568 0.0017,0.113264 0.0047,0.16939 0.0049,0.09179 0.01372,0.163979 0.01372,0.163979 0.0071,0.05967 0.05612,0.08453 0.108699,0.05562 l 2.078483,-1.142955 c 0.05257,-0.02908 0.141158,-0.03466 0.197115,-0.01234 l 1.109312,0.437842 c 0.05595,0.02198 0.100417,0.08909 0.0989,0.148934 l -0.02824,1.246752 c -0.0013,0.06001 -0.04564,0.132368 -0.09839,0.160768 l -2.197494,1.18657 c -0.05275,0.02857 -0.05613,0.08047 -0.0075,0.1158 0,0 0.235659,0.170066 0.4135,0.263043 0.249183,0.130508 0.517635,0.228727 0.799782,0.28874 0.212161,0.04513 0.432434,0.06897 0.658117,0.06897 1.740216,0 3.150942,-1.410732 3.150942,-3.150944 0,-0.16753 -0.01422,-0.331848 -0.03857,-0.492278 -0.01744,-0.114278 -0.02992,-0.234304 -0.02824,-0.356191 0.0013,-0.13169 0.01992,-0.266085 0.06641,-0.39896 0.02402,-0.06796 0.05528,-0.135748 0.09534,-0.202185 0.04012,-0.06678 0.07912,-0.113096 0.07912,-0.113096 0.03857,-0.04581 0.104981,-0.118166 0.147412,-0.160598 l 5.55281,-5.5438592 c 0.04226,-0.042263 0.116478,-0.1063336 0.164826,-0.1420031 0,0 0.04173,-0.031275 0.104638,-0.067113 0.103633,-0.059672 0.205742,-0.098218 0.313594,-0.1207024 0.102102,-0.021132 0.209283,-0.027558 0.328807,-0.023158 0.06594,0.00248 0.135068,0.00845 0.208942,0.016905 0.149786,0.017073 0.301927,0.032798 0.45712,0.032798 1.740034,0 3.150934,-1.4107318 3.150934,-3.1509441 1.8e-4,-0.05731 -0.002,-0.1137719 -0.005,-0.1697278 z"
       id="path3" /></g></svg>